<mxfile host="app.diagrams.net" agent="Mozilla/5.0 (X11; Linux x86_64; rv:136.0) Gecko/20100101 Firefox/136.0" version="26.1.1">
  <diagram name="Page-1" id="8XMUS-ZbZdpERoQennf1">
    <mxGraphModel dx="3354" dy="1175" grid="1" gridSize="10" guides="1" tooltips="1" connect="1" arrows="1" fold="1" page="1" pageScale="1" pageWidth="850" pageHeight="1100" math="0" shadow="0">
      <root>
        <mxCell id="0" />
        <mxCell id="1" parent="0" />
        <mxCell id="_XMfV1x2-SRP0HOv2jQQ-1" value="vessel data" style="rounded=0;whiteSpace=wrap;html=1;" vertex="1" parent="1">
          <mxGeometry x="60" y="70" width="80" height="40" as="geometry" />
        </mxCell>
        <mxCell id="_XMfV1x2-SRP0HOv2jQQ-2" value="sar data" style="rounded=0;whiteSpace=wrap;html=1;" vertex="1" parent="1">
          <mxGeometry x="200" y="70" width="80" height="40" as="geometry" />
        </mxCell>
        <mxCell id="_XMfV1x2-SRP0HOv2jQQ-3" value="aton data" style="rounded=0;whiteSpace=wrap;html=1;" vertex="1" parent="1">
          <mxGeometry x="320" y="70" width="80" height="40" as="geometry" />
        </mxCell>
        <mxCell id="_XMfV1x2-SRP0HOv2jQQ-6" style="edgeStyle=orthogonalEdgeStyle;rounded=0;orthogonalLoop=1;jettySize=auto;html=1;exitX=0.5;exitY=0;exitDx=0;exitDy=0;entryX=0.5;entryY=1;entryDx=0;entryDy=0;" edge="1" parent="1" source="_XMfV1x2-SRP0HOv2jQQ-4" target="_XMfV1x2-SRP0HOv2jQQ-1">
          <mxGeometry relative="1" as="geometry" />
        </mxCell>
        <mxCell id="_XMfV1x2-SRP0HOv2jQQ-7" style="edgeStyle=orthogonalEdgeStyle;rounded=0;orthogonalLoop=1;jettySize=auto;html=1;exitX=0.5;exitY=0;exitDx=0;exitDy=0;entryX=0.5;entryY=1;entryDx=0;entryDy=0;" edge="1" parent="1" source="_XMfV1x2-SRP0HOv2jQQ-4" target="_XMfV1x2-SRP0HOv2jQQ-2">
          <mxGeometry relative="1" as="geometry" />
        </mxCell>
        <mxCell id="_XMfV1x2-SRP0HOv2jQQ-8" style="edgeStyle=orthogonalEdgeStyle;rounded=0;orthogonalLoop=1;jettySize=auto;html=1;exitX=0.75;exitY=0;exitDx=0;exitDy=0;entryX=0.5;entryY=1;entryDx=0;entryDy=0;" edge="1" parent="1" source="_XMfV1x2-SRP0HOv2jQQ-4" target="_XMfV1x2-SRP0HOv2jQQ-3">
          <mxGeometry relative="1" as="geometry">
            <Array as="points">
              <mxPoint x="110" y="200" />
              <mxPoint x="110" y="155" />
              <mxPoint x="360" y="155" />
            </Array>
          </mxGeometry>
        </mxCell>
        <mxCell id="_XMfV1x2-SRP0HOv2jQQ-4" value="Datapuller" style="rounded=0;whiteSpace=wrap;html=1;" vertex="1" parent="1">
          <mxGeometry x="70" y="200" width="80" height="40" as="geometry" />
        </mxCell>
        <mxCell id="_XMfV1x2-SRP0HOv2jQQ-5" value="raw-values-topic" style="rounded=0;whiteSpace=wrap;html=1;fillColor=#d5e8d4;strokeColor=#82b366;" vertex="1" parent="1">
          <mxGeometry x="50" y="270" width="240" height="20" as="geometry" />
        </mxCell>
        <mxCell id="_XMfV1x2-SRP0HOv2jQQ-9" value="Pulls the messages to the pipeline" style="rounded=0;whiteSpace=wrap;html=1;fillColor=#dae8fc;strokeColor=#6c8ebf;" vertex="1" parent="1">
          <mxGeometry x="200" y="200" width="310" height="40" as="geometry" />
        </mxCell>
        <mxCell id="_XMfV1x2-SRP0HOv2jQQ-26" style="edgeStyle=orthogonalEdgeStyle;rounded=0;orthogonalLoop=1;jettySize=auto;html=1;exitX=0.5;exitY=1;exitDx=0;exitDy=0;entryX=0.5;entryY=0;entryDx=0;entryDy=0;" edge="1" parent="1" source="_XMfV1x2-SRP0HOv2jQQ-11" target="_XMfV1x2-SRP0HOv2jQQ-25">
          <mxGeometry relative="1" as="geometry" />
        </mxCell>
        <mxCell id="_XMfV1x2-SRP0HOv2jQQ-11" value="&lt;div&gt;&lt;br&gt;&lt;/div&gt;&lt;div&gt;&lt;br&gt;&lt;/div&gt;" style="rounded=0;whiteSpace=wrap;html=1;" vertex="1" parent="1">
          <mxGeometry x="60" y="490" width="390" height="90" as="geometry" />
        </mxCell>
        <mxCell id="_XMfV1x2-SRP0HOv2jQQ-36" style="edgeStyle=orthogonalEdgeStyle;rounded=0;orthogonalLoop=1;jettySize=auto;html=1;exitX=1;exitY=0.5;exitDx=0;exitDy=0;entryX=0.5;entryY=0;entryDx=0;entryDy=0;" edge="1" parent="1" source="_XMfV1x2-SRP0HOv2jQQ-12" target="_XMfV1x2-SRP0HOv2jQQ-35">
          <mxGeometry relative="1" as="geometry" />
        </mxCell>
        <mxCell id="_XMfV1x2-SRP0HOv2jQQ-12" value="Time-series-forecaster" style="rounded=0;whiteSpace=wrap;html=1;" vertex="1" parent="1">
          <mxGeometry x="390" y="610" width="190" height="40" as="geometry" />
        </mxCell>
        <mxCell id="_XMfV1x2-SRP0HOv2jQQ-34" style="edgeStyle=orthogonalEdgeStyle;rounded=0;orthogonalLoop=1;jettySize=auto;html=1;entryX=0.5;entryY=0;entryDx=0;entryDy=0;" edge="1" parent="1" source="_XMfV1x2-SRP0HOv2jQQ-13" target="_XMfV1x2-SRP0HOv2jQQ-32">
          <mxGeometry relative="1" as="geometry" />
        </mxCell>
        <mxCell id="_XMfV1x2-SRP0HOv2jQQ-13" value="Anomaly detector" style="rounded=0;whiteSpace=wrap;html=1;" vertex="1" parent="1">
          <mxGeometry x="390" y="660" width="150" height="40" as="geometry" />
        </mxCell>
        <mxCell id="_XMfV1x2-SRP0HOv2jQQ-15" value="Partition 1..... N" style="rounded=0;whiteSpace=wrap;html=1;fillColor=#d5e8d4;strokeColor=#82b366;" vertex="1" parent="1">
          <mxGeometry x="75" y="300" width="190" height="20" as="geometry" />
        </mxCell>
        <mxCell id="_XMfV1x2-SRP0HOv2jQQ-18" style="edgeStyle=orthogonalEdgeStyle;rounded=0;orthogonalLoop=1;jettySize=auto;html=1;exitX=0;exitY=0.5;exitDx=0;exitDy=0;entryX=1;entryY=0.5;entryDx=0;entryDy=0;" edge="1" parent="1" source="_XMfV1x2-SRP0HOv2jQQ-12" target="_XMfV1x2-SRP0HOv2jQQ-25">
          <mxGeometry relative="1" as="geometry">
            <mxPoint x="360" y="370" as="targetPoint" />
          </mxGeometry>
        </mxCell>
        <mxCell id="_XMfV1x2-SRP0HOv2jQQ-14" value="Call sign validator" style="rounded=0;whiteSpace=wrap;html=1;" vertex="1" parent="1">
          <mxGeometry x="65" y="510" width="120" height="40" as="geometry" />
        </mxCell>
        <mxCell id="_XMfV1x2-SRP0HOv2jQQ-24" value="&lt;div&gt;Validates incoming messages against the metadata&lt;/div&gt;&lt;div&gt;Option 1: Drop false incoming data&lt;/div&gt;&lt;div&gt;Option 2: Pass the false incoming data but mark them as &quot;false&quot; etc..&lt;/div&gt;" style="rounded=0;whiteSpace=wrap;html=1;fillColor=#dae8fc;strokeColor=#6c8ebf;" vertex="1" parent="1">
          <mxGeometry x="500" y="500" width="340" height="70" as="geometry" />
        </mxCell>
        <mxCell id="_XMfV1x2-SRP0HOv2jQQ-25" value="validated-data-topic" style="rounded=0;whiteSpace=wrap;html=1;fillColor=#d5e8d4;strokeColor=#82b366;" vertex="1" parent="1">
          <mxGeometry x="65" y="620" width="240" height="20" as="geometry" />
        </mxCell>
        <mxCell id="_XMfV1x2-SRP0HOv2jQQ-31" style="edgeStyle=orthogonalEdgeStyle;rounded=0;orthogonalLoop=1;jettySize=auto;html=1;entryX=0.5;entryY=1;entryDx=0;entryDy=0;" edge="1" parent="1" source="_XMfV1x2-SRP0HOv2jQQ-29" target="_XMfV1x2-SRP0HOv2jQQ-25">
          <mxGeometry relative="1" as="geometry" />
        </mxCell>
        <mxCell id="_XMfV1x2-SRP0HOv2jQQ-66" style="edgeStyle=orthogonalEdgeStyle;rounded=0;orthogonalLoop=1;jettySize=auto;html=1;exitX=0.5;exitY=1;exitDx=0;exitDy=0;" edge="1" parent="1" source="_XMfV1x2-SRP0HOv2jQQ-29" target="_XMfV1x2-SRP0HOv2jQQ-65">
          <mxGeometry relative="1" as="geometry" />
        </mxCell>
        <mxCell id="_XMfV1x2-SRP0HOv2jQQ-74" style="edgeStyle=orthogonalEdgeStyle;rounded=0;orthogonalLoop=1;jettySize=auto;html=1;exitX=0.5;exitY=0;exitDx=0;exitDy=0;" edge="1" parent="1" source="_XMfV1x2-SRP0HOv2jQQ-29" target="_XMfV1x2-SRP0HOv2jQQ-35">
          <mxGeometry relative="1" as="geometry" />
        </mxCell>
        <mxCell id="_XMfV1x2-SRP0HOv2jQQ-29" value="db-writer" style="rounded=0;whiteSpace=wrap;html=1;" vertex="1" parent="1">
          <mxGeometry x="80" y="850" width="190" height="20" as="geometry" />
        </mxCell>
        <mxCell id="_XMfV1x2-SRP0HOv2jQQ-32" value="anomality values" style="rounded=0;whiteSpace=wrap;html=1;fillColor=#d5e8d4;strokeColor=#82b366;" vertex="1" parent="1">
          <mxGeometry x="255" y="740" width="160" height="20" as="geometry" />
        </mxCell>
        <mxCell id="_XMfV1x2-SRP0HOv2jQQ-33" style="edgeStyle=orthogonalEdgeStyle;rounded=0;orthogonalLoop=1;jettySize=auto;html=1;entryX=0.621;entryY=0.95;entryDx=0;entryDy=0;entryPerimeter=0;" edge="1" parent="1" source="_XMfV1x2-SRP0HOv2jQQ-13" target="_XMfV1x2-SRP0HOv2jQQ-25">
          <mxGeometry relative="1" as="geometry" />
        </mxCell>
        <mxCell id="_XMfV1x2-SRP0HOv2jQQ-35" value="forecasted values" style="rounded=0;whiteSpace=wrap;html=1;fillColor=#d5e8d4;strokeColor=#82b366;" vertex="1" parent="1">
          <mxGeometry x="490" y="740" width="160" height="20" as="geometry" />
        </mxCell>
        <mxCell id="_XMfV1x2-SRP0HOv2jQQ-37" value="This depends highly do we want continuos forecasting or will it be prompted by the UI on prompted by REST api client for example to iniate calculation and save result to table" style="rounded=0;whiteSpace=wrap;html=1;fillColor=#dae8fc;strokeColor=#6c8ebf;" vertex="1" parent="1">
          <mxGeometry x="620" y="610" width="220" height="80" as="geometry" />
        </mxCell>
        <mxCell id="_XMfV1x2-SRP0HOv2jQQ-39" value="Geography validator" style="rounded=0;whiteSpace=wrap;html=1;" vertex="1" parent="1">
          <mxGeometry x="190" y="510" width="120" height="40" as="geometry" />
        </mxCell>
        <mxCell id="_XMfV1x2-SRP0HOv2jQQ-42" value="MMSI Validator" style="rounded=0;whiteSpace=wrap;html=1;" vertex="1" parent="1">
          <mxGeometry x="320" y="510" width="120" height="40" as="geometry" />
        </mxCell>
        <mxCell id="_XMfV1x2-SRP0HOv2jQQ-44" value="Replicate pods 1 ... N " style="rounded=0;whiteSpace=wrap;html=1;fillColor=#dae8fc;strokeColor=#6c8ebf;" vertex="1" parent="1">
          <mxGeometry x="270" y="470" width="180" height="20" as="geometry" />
        </mxCell>
        <mxCell id="_XMfV1x2-SRP0HOv2jQQ-46" style="edgeStyle=orthogonalEdgeStyle;rounded=0;orthogonalLoop=1;jettySize=auto;html=1;exitX=0.5;exitY=1;exitDx=0;exitDy=0;entryX=0.538;entryY=0.15;entryDx=0;entryDy=0;entryPerimeter=0;" edge="1" parent="1" source="_XMfV1x2-SRP0HOv2jQQ-4" target="_XMfV1x2-SRP0HOv2jQQ-5">
          <mxGeometry relative="1" as="geometry" />
        </mxCell>
        <mxCell id="_XMfV1x2-SRP0HOv2jQQ-54" style="edgeStyle=orthogonalEdgeStyle;rounded=0;orthogonalLoop=1;jettySize=auto;html=1;exitX=0.5;exitY=1;exitDx=0;exitDy=0;entryX=0.5;entryY=0;entryDx=0;entryDy=0;" edge="1" parent="1" source="_XMfV1x2-SRP0HOv2jQQ-47" target="_XMfV1x2-SRP0HOv2jQQ-50">
          <mxGeometry relative="1" as="geometry" />
        </mxCell>
        <mxCell id="_XMfV1x2-SRP0HOv2jQQ-47" value="data-format" style="rounded=0;whiteSpace=wrap;html=1;" vertex="1" parent="1">
          <mxGeometry x="60" y="360" width="290" height="40" as="geometry" />
        </mxCell>
        <mxCell id="_XMfV1x2-SRP0HOv2jQQ-48" value="Replicate pods 1 ... N " style="rounded=0;whiteSpace=wrap;html=1;fillColor=#dae8fc;strokeColor=#6c8ebf;" vertex="1" parent="1">
          <mxGeometry x="220" y="340" width="130" height="20" as="geometry" />
        </mxCell>
        <mxCell id="_XMfV1x2-SRP0HOv2jQQ-49" style="edgeStyle=orthogonalEdgeStyle;rounded=0;orthogonalLoop=1;jettySize=auto;html=1;exitX=0.5;exitY=1;exitDx=0;exitDy=0;entryX=0.372;entryY=0;entryDx=0;entryDy=0;entryPerimeter=0;" edge="1" parent="1" source="_XMfV1x2-SRP0HOv2jQQ-15" target="_XMfV1x2-SRP0HOv2jQQ-47">
          <mxGeometry relative="1" as="geometry" />
        </mxCell>
        <mxCell id="_XMfV1x2-SRP0HOv2jQQ-50" value="values-topic" style="rounded=0;whiteSpace=wrap;html=1;fillColor=#d5e8d4;strokeColor=#82b366;" vertex="1" parent="1">
          <mxGeometry x="65" y="440" width="240" height="20" as="geometry" />
        </mxCell>
        <mxCell id="_XMfV1x2-SRP0HOv2jQQ-52" value="Pulls the message validates message format, assigns message type origin to the message" style="rounded=0;whiteSpace=wrap;html=1;fillColor=#dae8fc;strokeColor=#6c8ebf;" vertex="1" parent="1">
          <mxGeometry x="390" y="360" width="310" height="40" as="geometry" />
        </mxCell>
        <mxCell id="_XMfV1x2-SRP0HOv2jQQ-53" style="edgeStyle=orthogonalEdgeStyle;rounded=0;orthogonalLoop=1;jettySize=auto;html=1;exitX=0.5;exitY=1;exitDx=0;exitDy=0;entryX=0.338;entryY=0.022;entryDx=0;entryDy=0;entryPerimeter=0;" edge="1" parent="1" source="_XMfV1x2-SRP0HOv2jQQ-50" target="_XMfV1x2-SRP0HOv2jQQ-11">
          <mxGeometry relative="1" as="geometry" />
        </mxCell>
        <mxCell id="_XMfV1x2-SRP0HOv2jQQ-55" value="" style="rounded=0;whiteSpace=wrap;html=1;" vertex="1" parent="1">
          <mxGeometry x="580" y="30" width="30" height="30" as="geometry" />
        </mxCell>
        <mxCell id="_XMfV1x2-SRP0HOv2jQQ-58" value="ETL Service pod" style="text;html=1;align=center;verticalAlign=middle;whiteSpace=wrap;rounded=0;" vertex="1" parent="1">
          <mxGeometry x="620" y="35" width="110" height="20" as="geometry" />
        </mxCell>
        <mxCell id="_XMfV1x2-SRP0HOv2jQQ-59" value="" style="rounded=0;whiteSpace=wrap;html=1;fillColor=#dae8fc;strokeColor=#6c8ebf;" vertex="1" parent="1">
          <mxGeometry x="580" y="70" width="30" height="30" as="geometry" />
        </mxCell>
        <mxCell id="_XMfV1x2-SRP0HOv2jQQ-60" value="Comment of function" style="text;html=1;align=center;verticalAlign=middle;whiteSpace=wrap;rounded=0;" vertex="1" parent="1">
          <mxGeometry x="620" y="75" width="130" height="25" as="geometry" />
        </mxCell>
        <mxCell id="_XMfV1x2-SRP0HOv2jQQ-61" value="" style="rounded=0;whiteSpace=wrap;html=1;fillColor=#d5e8d4;strokeColor=#82b366;" vertex="1" parent="1">
          <mxGeometry x="580" y="110" width="30" height="30" as="geometry" />
        </mxCell>
        <mxCell id="_XMfV1x2-SRP0HOv2jQQ-62" value="Kafka topic" style="text;html=1;align=center;verticalAlign=middle;whiteSpace=wrap;rounded=0;" vertex="1" parent="1">
          <mxGeometry x="620" y="115" width="130" height="25" as="geometry" />
        </mxCell>
        <mxCell id="_XMfV1x2-SRP0HOv2jQQ-63" value="" style="rounded=0;whiteSpace=wrap;html=1;fillColor=#fff2cc;strokeColor=#d6b656;" vertex="1" parent="1">
          <mxGeometry x="580" y="150" width="30" height="30" as="geometry" />
        </mxCell>
        <mxCell id="_XMfV1x2-SRP0HOv2jQQ-64" value="DB" style="text;html=1;align=center;verticalAlign=middle;whiteSpace=wrap;rounded=0;" vertex="1" parent="1">
          <mxGeometry x="620" y="155" width="130" height="25" as="geometry" />
        </mxCell>
        <mxCell id="_XMfV1x2-SRP0HOv2jQQ-65" value="DB" style="rounded=0;whiteSpace=wrap;html=1;fillColor=#fff2cc;strokeColor=#d6b656;" vertex="1" parent="1">
          <mxGeometry x="210" y="960" width="150" height="90" as="geometry" />
        </mxCell>
        <mxCell id="_XMfV1x2-SRP0HOv2jQQ-68" style="edgeStyle=orthogonalEdgeStyle;rounded=0;orthogonalLoop=1;jettySize=auto;html=1;exitX=0.5;exitY=1;exitDx=0;exitDy=0;entryX=0.75;entryY=0;entryDx=0;entryDy=0;" edge="1" parent="1" source="_XMfV1x2-SRP0HOv2jQQ-67" target="_XMfV1x2-SRP0HOv2jQQ-65">
          <mxGeometry relative="1" as="geometry" />
        </mxCell>
        <mxCell id="_XMfV1x2-SRP0HOv2jQQ-67" value="denormalizer" style="rounded=0;whiteSpace=wrap;html=1;" vertex="1" parent="1">
          <mxGeometry x="415" y="850" width="190" height="20" as="geometry" />
        </mxCell>
        <mxCell id="_XMfV1x2-SRP0HOv2jQQ-69" value="This depends highly on the query needs of the application. If query performance is optimized and storage is not a consern. Denormalized table can be created peridiocally to from often used query table for user" style="rounded=0;whiteSpace=wrap;html=1;fillColor=#dae8fc;strokeColor=#6c8ebf;" vertex="1" parent="1">
          <mxGeometry x="610" y="810" width="240" height="100" as="geometry" />
        </mxCell>
        <mxCell id="_XMfV1x2-SRP0HOv2jQQ-71" style="edgeStyle=orthogonalEdgeStyle;rounded=0;orthogonalLoop=1;jettySize=auto;html=1;exitX=0;exitY=0.5;exitDx=0;exitDy=0;entryX=1;entryY=0.5;entryDx=0;entryDy=0;" edge="1" parent="1" source="_XMfV1x2-SRP0HOv2jQQ-70" target="_XMfV1x2-SRP0HOv2jQQ-65">
          <mxGeometry relative="1" as="geometry" />
        </mxCell>
        <mxCell id="_XMfV1x2-SRP0HOv2jQQ-70" value="api" style="rounded=0;whiteSpace=wrap;html=1;" vertex="1" parent="1">
          <mxGeometry x="425" y="980" width="80" height="50" as="geometry" />
        </mxCell>
        <mxCell id="_XMfV1x2-SRP0HOv2jQQ-72" value="Api-pod to handle requests from end user" style="rounded=0;whiteSpace=wrap;html=1;fillColor=#dae8fc;strokeColor=#6c8ebf;" vertex="1" parent="1">
          <mxGeometry x="540" y="965" width="160" height="80" as="geometry" />
        </mxCell>
        <mxCell id="_XMfV1x2-SRP0HOv2jQQ-73" style="edgeStyle=orthogonalEdgeStyle;rounded=0;orthogonalLoop=1;jettySize=auto;html=1;exitX=0.5;exitY=0;exitDx=0;exitDy=0;entryX=0.45;entryY=0.95;entryDx=0;entryDy=0;entryPerimeter=0;" edge="1" parent="1" source="_XMfV1x2-SRP0HOv2jQQ-29" target="_XMfV1x2-SRP0HOv2jQQ-32">
          <mxGeometry relative="1" as="geometry" />
        </mxCell>
        <mxCell id="_XMfV1x2-SRP0HOv2jQQ-75" value="my understanding these three are streaming data from unspecified source" style="rounded=0;whiteSpace=wrap;html=1;fillColor=#dae8fc;strokeColor=#6c8ebf;" vertex="1" parent="1">
          <mxGeometry x="70" y="20" width="310" height="40" as="geometry" />
        </mxCell>
      </root>
    </mxGraphModel>
  </diagram>
</mxfile>
